<?xml version="1.0" standalone="no"?>
<!DOCTYPE svg PUBLIC "-//W3C//DTD SVG 20010904//EN"
 "http://www.w3.org/TR/2001/REC-SVG-20010904/DTD/svg10.dtd">
<svg version="1.0" xmlns="http://www.w3.org/2000/svg"
 width="150.000000pt" height="148.000000pt" viewBox="0 0 150.000000 148.000000"
 preserveAspectRatio="xMidYMid meet">
<metadata>
Created by potrace 1.16, written by Peter Selinger 2001-2019
</metadata>
<g transform="translate(0.000000,148.000000) scale(0.100000,-0.100000)"
fill="#000000" stroke="none">
<path d="M957 1420 c-104 -40 -191 -151 -204 -260 l-6 -50 35 0 c77 0 190 85
238 180 12 24 24 67 27 96 6 52 5 54 -18 54 -13 -1 -46 -9 -72 -20z"/>
<path d="M408 1082 c-58 -19 -132 -74 -174 -129 -133 -174 -103 -501 69 -753
42 -61 126 -149 159 -166 40 -21 106 -17 186 11 94 33 166 33 263 -1 98 -34
164 -30 217 13 56 45 127 137 171 222 57 111 57 113 16 136 -49 26 -113 97
-138 153 -15 34 -20 68 -21 122 0 101 28 164 101 229 l54 48 -26 31 c-14 17
-56 46 -93 64 -57 28 -79 33 -152 36 -74 3 -97 -1 -174 -27 -50 -17 -99 -31
-111 -31 -11 0 -59 13 -105 30 -96 34 -167 37 -242 12z"/>
</g>
</svg>
